<svg xmlns="http://www.w3.org/2000/svg" width="27.769" height="27.315" viewBox="0 0 27.769 27.315">
    <path id="share-lines" d="M7.207,8.436A5.2,5.2,0,0,1,10.9,9.967a5.354,5.354,0,0,1,.586.7l8.238-3.427a5.15,5.15,0,0,1-.4-2.014A5.226,5.226,0,1,1,20.85,8.912a5.129,5.129,0,0,1-.454-.52l-8.29,3.449a5.155,5.155,0,0,1,.33,1.816,5.422,5.422,0,0,1-.124,1.15l8.282,3.881q.121-.143.264-.286a5.215,5.215,0,1,1-1.531,3.691,5.124,5.124,0,0,1,.535-2.292l-8-3.749a5.066,5.066,0,0,1-.952,1.3A5.22,5.22,0,1,1,7.221,8.436Zm20.08-5.968a3.89,3.89,0,1,0,1.142,2.753A3.885,3.885,0,0,0,27.287,2.468Zm0,16.865a3.89,3.89,0,1,0,1.142,2.753A3.885,3.885,0,0,0,27.287,19.333ZM9.96,10.9A3.89,3.89,0,1,0,11.1,13.65,3.885,3.885,0,0,0,9.96,10.9Z" transform="translate(-2)" fill="#582908"/>
</svg>
